<svg width="390" height="844" viewBox="0 0 390 844" fill="none" xmlns="http://www.w3.org/2000/svg">
<rect width="390" height="844" fill="white"/>
<path d="M24.5 248C24.5 243.858 27.8579 240.5 32 240.5H359C363.142 240.5 366.5 243.858 366.5 248V282C366.5 286.142 363.142 289.5 359 289.5H32C27.8579 289.5 24.5 286.142 24.5 282V248Z" fill="#F6F6F6" stroke="#E8E8E8"/>
<path d="M41.2784 271V259.364H48.5739V260.875H43.0341V264.42H48.1932V265.926H43.0341V269.489H48.642V271H41.2784ZM50.7827 271V262.273H52.4134V263.693H52.5213C52.7031 263.212 53.0005 262.837 53.4134 262.568C53.8262 262.295 54.3205 262.159 54.8963 262.159C55.4796 262.159 55.9683 262.295 56.3622 262.568C56.7599 262.841 57.0535 263.216 57.2429 263.693H57.3338C57.5421 263.227 57.8736 262.856 58.3281 262.58C58.7827 262.299 59.3243 262.159 59.9531 262.159C60.7448 262.159 61.3906 262.407 61.8906 262.903C62.3944 263.4 62.6463 264.148 62.6463 265.148V271H60.9474V265.307C60.9474 264.716 60.7865 264.288 60.4645 264.023C60.1425 263.758 59.758 263.625 59.3111 263.625C58.758 263.625 58.3281 263.795 58.0213 264.136C57.7145 264.473 57.5611 264.907 57.5611 265.438V271H55.8679V265.199C55.8679 264.725 55.7202 264.345 55.4247 264.057C55.1293 263.769 54.7448 263.625 54.2713 263.625C53.9493 263.625 53.652 263.71 53.3793 263.881C53.1103 264.047 52.8925 264.28 52.7259 264.58C52.563 264.879 52.4815 265.225 52.4815 265.619V271H50.7827ZM67.4631 271.193C66.91 271.193 66.41 271.091 65.9631 270.886C65.5161 270.678 65.1619 270.377 64.9006 269.983C64.643 269.589 64.5142 269.106 64.5142 268.534C64.5142 268.042 64.6089 267.636 64.7983 267.318C64.9877 267 65.2434 266.748 65.5653 266.562C65.8873 266.377 66.2472 266.237 66.6449 266.142C67.0426 266.047 67.4479 265.975 67.8608 265.926C68.3835 265.866 68.8078 265.816 69.1335 265.778C69.4593 265.737 69.696 265.67 69.8438 265.58C69.9915 265.489 70.0653 265.341 70.0653 265.136V265.097C70.0653 264.6 69.9252 264.216 69.6449 263.943C69.3684 263.67 68.9555 263.534 68.4062 263.534C67.8343 263.534 67.3835 263.661 67.054 263.915C66.7282 264.165 66.5028 264.443 66.3778 264.75L64.7812 264.386C64.9706 263.856 65.2472 263.428 65.6108 263.102C65.9782 262.773 66.4006 262.534 66.8778 262.386C67.3551 262.235 67.857 262.159 68.3835 262.159C68.732 262.159 69.1013 262.201 69.4915 262.284C69.8854 262.364 70.2528 262.511 70.5938 262.727C70.9384 262.943 71.2206 263.252 71.4403 263.653C71.66 264.051 71.7699 264.568 71.7699 265.205V271H70.1108V269.807H70.0426C69.9328 270.027 69.768 270.242 69.5483 270.455C69.3286 270.667 69.0464 270.843 68.7017 270.983C68.357 271.123 67.9441 271.193 67.4631 271.193ZM67.8324 269.83C68.3021 269.83 68.7036 269.737 69.0369 269.551C69.3741 269.366 69.6297 269.123 69.804 268.824C69.982 268.521 70.071 268.197 70.071 267.852V266.727C70.0104 266.788 69.893 266.845 69.7188 266.898C69.5483 266.947 69.3532 266.991 69.1335 267.028C68.9138 267.062 68.6998 267.095 68.4915 267.125C68.2831 267.152 68.1089 267.174 67.9688 267.193C67.6392 267.235 67.3381 267.305 67.0653 267.403C66.7964 267.502 66.5805 267.644 66.4176 267.83C66.2585 268.011 66.179 268.254 66.179 268.557C66.179 268.977 66.3343 269.295 66.6449 269.511C66.9555 269.723 67.3513 269.83 67.8324 269.83ZM74.0327 271V262.273H75.7315V271H74.0327ZM74.8906 260.926C74.5952 260.926 74.3414 260.828 74.1293 260.631C73.9209 260.43 73.8168 260.191 73.8168 259.915C73.8168 259.634 73.9209 259.396 74.1293 259.199C74.3414 258.998 74.5952 258.898 74.8906 258.898C75.1861 258.898 75.438 258.998 75.6463 259.199C75.8584 259.396 75.9645 259.634 75.9645 259.915C75.9645 260.191 75.8584 260.43 75.6463 260.631C75.438 260.828 75.1861 260.926 74.8906 260.926ZM79.7159 259.364V271H78.017V259.364H79.7159Z" fill="#BDBDBD"/>
<path d="M24.5 314C24.5 309.858 27.8579 306.5 32 306.5H359C363.142 306.5 366.5 309.858 366.5 314V348C366.5 352.142 363.142 355.5 359 355.5H32C27.8579 355.5 24.5 352.142 24.5 348V314Z" fill="#F6F6F6" stroke="#E8E8E8"/>
<path d="M41.2784 337V325.364H45.4261C46.3314 325.364 47.0814 325.528 47.6761 325.858C48.2708 326.187 48.7159 326.638 49.0114 327.21C49.3068 327.778 49.4545 328.419 49.4545 329.131C49.4545 329.847 49.3049 330.491 49.0057 331.062C48.7102 331.631 48.2633 332.081 47.6648 332.415C47.0701 332.744 46.322 332.909 45.4205 332.909H42.5682V331.42H45.2614C45.8333 331.42 46.2973 331.322 46.6534 331.125C47.0095 330.924 47.2708 330.652 47.4375 330.307C47.6042 329.962 47.6875 329.57 47.6875 329.131C47.6875 328.691 47.6042 328.301 47.4375 327.96C47.2708 327.619 47.0076 327.352 46.6477 327.159C46.2917 326.966 45.822 326.869 45.2386 326.869H43.0341V337H41.2784ZM53.8381 337.193C53.285 337.193 52.785 337.091 52.3381 336.886C51.8911 336.678 51.5369 336.377 51.2756 335.983C51.018 335.589 50.8892 335.106 50.8892 334.534C50.8892 334.042 50.9839 333.636 51.1733 333.318C51.3627 333 51.6184 332.748 51.9403 332.562C52.2623 332.377 52.6222 332.237 53.0199 332.142C53.4176 332.047 53.8229 331.975 54.2358 331.926C54.7585 331.866 55.1828 331.816 55.5085 331.778C55.8343 331.737 56.071 331.67 56.2188 331.58C56.3665 331.489 56.4403 331.341 56.4403 331.136V331.097C56.4403 330.6 56.3002 330.216 56.0199 329.943C55.7434 329.67 55.3305 329.534 54.7812 329.534C54.2093 329.534 53.7585 329.661 53.429 329.915C53.1032 330.165 52.8778 330.443 52.7528 330.75L51.1562 330.386C51.3456 329.856 51.6222 329.428 51.9858 329.102C52.3532 328.773 52.7756 328.534 53.2528 328.386C53.7301 328.235 54.232 328.159 54.7585 328.159C55.107 328.159 55.4763 328.201 55.8665 328.284C56.2604 328.364 56.6278 328.511 56.9688 328.727C57.3134 328.943 57.5956 329.252 57.8153 329.653C58.035 330.051 58.1449 330.568 58.1449 331.205V337H56.4858V335.807H56.4176C56.3078 336.027 56.143 336.242 55.9233 336.455C55.7036 336.667 55.4214 336.843 55.0767 336.983C54.732 337.123 54.3191 337.193 53.8381 337.193ZM54.2074 335.83C54.6771 335.83 55.0786 335.737 55.4119 335.551C55.7491 335.366 56.0047 335.123 56.179 334.824C56.357 334.521 56.446 334.197 56.446 333.852V332.727C56.3854 332.788 56.268 332.845 56.0938 332.898C55.9233 332.947 55.7282 332.991 55.5085 333.028C55.2888 333.062 55.0748 333.095 54.8665 333.125C54.6581 333.152 54.4839 333.174 54.3438 333.193C54.0142 333.235 53.7131 333.305 53.4403 333.403C53.1714 333.502 52.9555 333.644 52.7926 333.83C52.6335 334.011 52.554 334.254 52.554 334.557C52.554 334.977 52.7093 335.295 53.0199 335.511C53.3305 335.723 53.7263 335.83 54.2074 335.83ZM66.9474 330.403L65.4077 330.676C65.3433 330.479 65.241 330.292 65.1009 330.114C64.9645 329.936 64.7789 329.79 64.544 329.676C64.3092 329.562 64.0156 329.506 63.6634 329.506C63.1823 329.506 62.7808 329.614 62.4588 329.83C62.1368 330.042 61.9759 330.316 61.9759 330.653C61.9759 330.945 62.0838 331.18 62.2997 331.358C62.5156 331.536 62.8641 331.682 63.3452 331.795L64.7315 332.114C65.5346 332.299 66.133 332.585 66.527 332.972C66.9209 333.358 67.1179 333.86 67.1179 334.477C67.1179 335 66.9664 335.466 66.6634 335.875C66.3641 336.28 65.9455 336.598 65.4077 336.83C64.8736 337.061 64.2543 337.176 63.5497 337.176C62.5724 337.176 61.7751 336.968 61.1577 336.551C60.5402 336.131 60.1615 335.534 60.0213 334.761L61.6634 334.511C61.7656 334.939 61.9759 335.263 62.294 335.483C62.6122 335.699 63.027 335.807 63.5384 335.807C64.0952 335.807 64.5402 335.691 64.8736 335.46C65.2069 335.225 65.3736 334.939 65.3736 334.602C65.3736 334.33 65.2713 334.1 65.0668 333.915C64.866 333.729 64.5573 333.589 64.1406 333.494L62.6634 333.17C61.849 332.985 61.2467 332.689 60.8565 332.284C60.4702 331.879 60.277 331.366 60.277 330.744C60.277 330.229 60.4209 329.778 60.7088 329.392C60.9967 329.006 61.3944 328.705 61.902 328.489C62.4096 328.269 62.991 328.159 63.6463 328.159C64.5895 328.159 65.3319 328.364 65.8736 328.773C66.4152 329.178 66.7732 329.722 66.9474 330.403ZM75.5256 330.403L73.9858 330.676C73.9214 330.479 73.8191 330.292 73.679 330.114C73.5426 329.936 73.357 329.79 73.1222 329.676C72.8873 329.562 72.5938 329.506 72.2415 329.506C71.7604 329.506 71.3589 329.614 71.0369 329.83C70.715 330.042 70.554 330.316 70.554 330.653C70.554 330.945 70.6619 331.18 70.8778 331.358C71.0938 331.536 71.4422 331.682 71.9233 331.795L73.3097 332.114C74.1127 332.299 74.7112 332.585 75.1051 332.972C75.4991 333.358 75.696 333.86 75.696 334.477C75.696 335 75.5445 335.466 75.2415 335.875C74.9422 336.28 74.5237 336.598 73.9858 336.83C73.4517 337.061 72.8324 337.176 72.1278 337.176C71.1506 337.176 70.3532 336.968 69.7358 336.551C69.1184 336.131 68.7396 335.534 68.5994 334.761L70.2415 334.511C70.3438 334.939 70.554 335.263 70.8722 335.483C71.1903 335.699 71.6051 335.807 72.1165 335.807C72.6733 335.807 73.1184 335.691 73.4517 335.46C73.785 335.225 73.9517 334.939 73.9517 334.602C73.9517 334.33 73.8494 334.1 73.6449 333.915C73.4441 333.729 73.1354 333.589 72.7188 333.494L71.2415 333.17C70.4271 332.985 69.8248 332.689 69.4347 332.284C69.0483 331.879 68.8551 331.366 68.8551 330.744C68.8551 330.229 68.9991 329.778 69.2869 329.392C69.5748 329.006 69.9725 328.705 70.4801 328.489C70.9877 328.269 71.5691 328.159 72.2244 328.159C73.1676 328.159 73.91 328.364 74.4517 328.773C74.9934 329.178 75.3513 329.722 75.5256 330.403ZM79.456 337L76.8878 328.273H78.6435L80.3537 334.682H80.4389L82.1548 328.273H83.9105L85.6151 334.653H85.7003L87.3991 328.273H89.1548L86.5923 337H84.8594L83.0866 330.699H82.956L81.1832 337H79.456ZM94.1776 337.176C93.3594 337.176 92.6454 336.989 92.0355 336.614C91.4257 336.239 90.9522 335.714 90.6151 335.04C90.2779 334.366 90.1094 333.578 90.1094 332.676C90.1094 331.771 90.2779 330.979 90.6151 330.301C90.9522 329.623 91.4257 329.097 92.0355 328.722C92.6454 328.347 93.3594 328.159 94.1776 328.159C94.9957 328.159 95.7098 328.347 96.3196 328.722C96.9295 329.097 97.4029 329.623 97.7401 330.301C98.0772 330.979 98.2457 331.771 98.2457 332.676C98.2457 333.578 98.0772 334.366 97.7401 335.04C97.4029 335.714 96.9295 336.239 96.3196 336.614C95.7098 336.989 94.9957 337.176 94.1776 337.176ZM94.1832 335.75C94.7135 335.75 95.1529 335.61 95.5014 335.33C95.8499 335.049 96.1075 334.676 96.2741 334.21C96.4446 333.744 96.5298 333.231 96.5298 332.67C96.5298 332.114 96.4446 331.602 96.2741 331.136C96.1075 330.667 95.8499 330.29 95.5014 330.006C95.1529 329.722 94.7135 329.58 94.1832 329.58C93.6491 329.58 93.206 329.722 92.8537 330.006C92.5052 330.29 92.2457 330.667 92.0753 331.136C91.9086 331.602 91.8253 332.114 91.8253 332.67C91.8253 333.231 91.9086 333.744 92.0753 334.21C92.2457 334.676 92.5052 335.049 92.8537 335.33C93.206 335.61 93.6491 335.75 94.1832 335.75ZM100.142 337V328.273H101.784V329.659H101.875C102.034 329.189 102.314 328.82 102.716 328.551C103.121 328.278 103.58 328.142 104.091 328.142C104.197 328.142 104.322 328.146 104.466 328.153C104.614 328.161 104.729 328.17 104.812 328.182V329.807C104.744 329.788 104.623 329.767 104.449 329.744C104.275 329.718 104.1 329.705 103.926 329.705C103.525 329.705 103.167 329.79 102.852 329.96C102.542 330.127 102.295 330.36 102.114 330.659C101.932 330.955 101.841 331.292 101.841 331.67V337H100.142ZM109.237 337.17C108.533 337.17 107.904 336.991 107.351 336.631C106.802 336.267 106.37 335.75 106.055 335.08C105.745 334.405 105.589 333.597 105.589 332.653C105.589 331.71 105.747 330.903 106.061 330.233C106.379 329.562 106.815 329.049 107.368 328.693C107.921 328.337 108.548 328.159 109.249 328.159C109.79 328.159 110.226 328.25 110.555 328.432C110.889 328.61 111.146 328.818 111.328 329.057C111.514 329.295 111.658 329.506 111.76 329.688H111.862V325.364H113.561V337H111.902V335.642H111.76C111.658 335.828 111.51 336.04 111.317 336.278C111.127 336.517 110.866 336.725 110.533 336.903C110.199 337.081 109.768 337.17 109.237 337.17ZM109.612 335.722C110.101 335.722 110.514 335.593 110.851 335.335C111.192 335.074 111.449 334.712 111.624 334.25C111.802 333.788 111.891 333.25 111.891 332.636C111.891 332.03 111.804 331.5 111.629 331.045C111.455 330.591 111.199 330.237 110.862 329.983C110.525 329.729 110.108 329.602 109.612 329.602C109.101 329.602 108.675 329.735 108.334 330C107.993 330.265 107.735 330.627 107.561 331.085C107.391 331.544 107.305 332.061 107.305 332.636C107.305 333.22 107.393 333.744 107.567 334.21C107.741 334.676 107.999 335.045 108.339 335.318C108.684 335.587 109.108 335.722 109.612 335.722Z" fill="#BDBDBD"/>
<path fill-rule="evenodd" clip-rule="evenodd" d="M338 323.5C333 323.5 328.73 326.61 327 331C328.73 335.39 333 338.5 338 338.5C343 338.5 347.27 335.39 349 331C347.27 326.61 343 323.5 338 323.5ZM338 336C335.24 336 333 333.76 333 331C333 328.24 335.24 326 338 326C340.76 326 343 328.24 343 331C343 333.76 340.76 336 338 336ZM335 331C335 329.34 336.34 328 338 328C339.66 328 341 329.34 341 331C341 332.66 339.66 334 338 334C336.34 334 335 332.66 335 331Z" fill="black" fill-opacity="0.54"/>
<path d="M117.513 473.364V485H115.406V473.364H117.513ZM128.094 476.273V477.864H122.935V476.273H128.094ZM124.225 485V475.449C124.225 474.862 124.346 474.373 124.589 473.983C124.835 473.593 125.165 473.301 125.577 473.108C125.99 472.915 126.449 472.818 126.952 472.818C127.308 472.818 127.625 472.847 127.901 472.903C128.178 472.96 128.382 473.011 128.515 473.057L128.106 474.648C128.019 474.621 127.909 474.595 127.776 474.568C127.644 474.538 127.496 474.523 127.333 474.523C126.951 474.523 126.68 474.616 126.521 474.801C126.365 474.983 126.288 475.244 126.288 475.585V485H124.225ZM133.184 485.17C132.332 485.17 131.593 484.983 130.968 484.608C130.343 484.233 129.858 483.708 129.513 483.034C129.173 482.36 129.002 481.572 129.002 480.67C129.002 479.769 129.173 478.979 129.513 478.301C129.858 477.623 130.343 477.097 130.968 476.722C131.593 476.347 132.332 476.159 133.184 476.159C134.036 476.159 134.775 476.347 135.4 476.722C136.025 477.097 136.508 477.623 136.849 478.301C137.193 478.979 137.366 479.769 137.366 480.67C137.366 481.572 137.193 482.36 136.849 483.034C136.508 483.708 136.025 484.233 135.4 484.608C134.775 484.983 134.036 485.17 133.184 485.17ZM133.195 483.523C133.657 483.523 134.044 483.396 134.354 483.142C134.665 482.884 134.896 482.54 135.048 482.108C135.203 481.676 135.281 481.195 135.281 480.665C135.281 480.131 135.203 479.648 135.048 479.216C134.896 478.78 134.665 478.434 134.354 478.176C134.044 477.919 133.657 477.79 133.195 477.79C132.722 477.79 132.328 477.919 132.013 478.176C131.703 478.434 131.47 478.78 131.315 479.216C131.163 479.648 131.087 480.131 131.087 480.665C131.087 481.195 131.163 481.676 131.315 482.108C131.47 482.54 131.703 482.884 132.013 483.142C132.328 483.396 132.722 483.523 133.195 483.523ZM139.112 485V476.273H141.106V477.727H141.197C141.356 477.223 141.629 476.835 142.015 476.562C142.405 476.286 142.85 476.148 143.35 476.148C143.464 476.148 143.591 476.153 143.731 476.165C143.875 476.172 143.994 476.186 144.089 476.205V478.097C144.002 478.066 143.863 478.04 143.674 478.017C143.488 477.991 143.308 477.977 143.134 477.977C142.759 477.977 142.422 478.059 142.123 478.222C141.827 478.381 141.594 478.602 141.424 478.886C141.254 479.17 141.168 479.498 141.168 479.869V485H139.112ZM148.891 488.455C148.153 488.455 147.518 488.354 146.988 488.153C146.458 487.956 146.031 487.691 145.71 487.358C145.388 487.025 145.164 486.655 145.039 486.25L146.891 485.801C146.975 485.972 147.096 486.14 147.255 486.307C147.414 486.477 147.628 486.617 147.897 486.727C148.17 486.841 148.513 486.898 148.925 486.898C149.509 486.898 149.992 486.756 150.374 486.472C150.757 486.191 150.948 485.729 150.948 485.085V483.432H150.846C150.74 483.644 150.585 483.862 150.38 484.085C150.179 484.309 149.912 484.496 149.579 484.648C149.249 484.799 148.835 484.875 148.335 484.875C147.664 484.875 147.056 484.718 146.511 484.403C145.969 484.085 145.537 483.612 145.215 482.983C144.897 482.35 144.738 481.559 144.738 480.608C144.738 479.65 144.897 478.841 145.215 478.182C145.537 477.519 145.971 477.017 146.516 476.676C147.062 476.331 147.67 476.159 148.34 476.159C148.852 476.159 149.272 476.246 149.602 476.42C149.935 476.591 150.2 476.797 150.397 477.04C150.594 477.278 150.744 477.504 150.846 477.716H150.96V476.273H152.988V485.142C152.988 485.888 152.81 486.506 152.454 486.994C152.098 487.483 151.611 487.848 150.994 488.091C150.376 488.333 149.675 488.455 148.891 488.455ZM148.908 483.261C149.344 483.261 149.715 483.155 150.022 482.943C150.329 482.731 150.562 482.426 150.721 482.028C150.88 481.631 150.96 481.153 150.96 480.597C150.96 480.047 150.88 479.566 150.721 479.153C150.566 478.741 150.335 478.42 150.028 478.193C149.725 477.962 149.352 477.847 148.908 477.847C148.45 477.847 148.067 477.966 147.761 478.205C147.454 478.443 147.223 478.771 147.067 479.188C146.912 479.6 146.835 480.07 146.835 480.597C146.835 481.131 146.912 481.598 147.067 482C147.227 482.398 147.46 482.708 147.766 482.932C148.077 483.152 148.458 483.261 148.908 483.261ZM158.903 485.17C158.05 485.17 157.312 484.983 156.687 484.608C156.062 484.233 155.577 483.708 155.232 483.034C154.891 482.36 154.721 481.572 154.721 480.67C154.721 479.769 154.891 478.979 155.232 478.301C155.577 477.623 156.062 477.097 156.687 476.722C157.312 476.347 158.05 476.159 158.903 476.159C159.755 476.159 160.494 476.347 161.119 476.722C161.744 477.097 162.227 477.623 162.567 478.301C162.912 478.979 163.085 479.769 163.085 480.67C163.085 481.572 162.912 482.36 162.567 483.034C162.227 483.708 161.744 484.233 161.119 484.608C160.494 484.983 159.755 485.17 158.903 485.17ZM158.914 483.523C159.376 483.523 159.763 483.396 160.073 483.142C160.384 482.884 160.615 482.54 160.766 482.108C160.922 481.676 160.999 481.195 160.999 480.665C160.999 480.131 160.922 479.648 160.766 479.216C160.615 478.78 160.384 478.434 160.073 478.176C159.763 477.919 159.376 477.79 158.914 477.79C158.441 477.79 158.047 477.919 157.732 478.176C157.422 478.434 157.189 478.78 157.033 479.216C156.882 479.648 156.806 480.131 156.806 480.665C156.806 481.195 156.882 481.676 157.033 482.108C157.189 482.54 157.422 482.884 157.732 483.142C158.047 483.396 158.441 483.523 158.914 483.523ZM169.188 476.273V477.864H164.171V476.273H169.188ZM165.41 474.182H167.467V482.375C167.467 482.652 167.508 482.864 167.592 483.011C167.679 483.155 167.792 483.254 167.933 483.307C168.073 483.36 168.228 483.386 168.398 483.386C168.527 483.386 168.645 483.377 168.751 483.358C168.861 483.339 168.944 483.322 169.001 483.307L169.347 484.915C169.237 484.953 169.08 484.994 168.876 485.04C168.675 485.085 168.429 485.112 168.137 485.119C167.622 485.134 167.158 485.057 166.745 484.886C166.332 484.712 166.004 484.443 165.762 484.08C165.523 483.716 165.406 483.261 165.41 482.716V474.182ZM174.877 485V476.273H176.843V477.756H176.945C177.127 477.256 177.428 476.866 177.849 476.585C178.269 476.301 178.771 476.159 179.354 476.159C179.945 476.159 180.443 476.303 180.849 476.591C181.258 476.875 181.546 477.263 181.712 477.756H181.803C181.996 477.271 182.322 476.884 182.781 476.597C183.243 476.305 183.79 476.159 184.423 476.159C185.226 476.159 185.881 476.413 186.388 476.92C186.896 477.428 187.15 478.169 187.15 479.142V485H185.087V479.46C185.087 478.919 184.943 478.523 184.656 478.273C184.368 478.019 184.015 477.892 183.599 477.892C183.103 477.892 182.714 478.047 182.434 478.358C182.157 478.665 182.019 479.064 182.019 479.557V485H180.002V479.375C180.002 478.924 179.866 478.564 179.593 478.295C179.324 478.027 178.972 477.892 178.536 477.892C178.241 477.892 177.972 477.968 177.729 478.119C177.487 478.267 177.294 478.477 177.15 478.75C177.006 479.019 176.934 479.333 176.934 479.693V485H174.877ZM190.202 488.273C189.922 488.273 189.663 488.25 189.424 488.205C189.189 488.163 189.002 488.114 188.862 488.057L189.339 486.455C189.638 486.542 189.905 486.583 190.14 486.58C190.375 486.576 190.581 486.502 190.759 486.358C190.941 486.218 191.094 485.983 191.219 485.653L191.396 485.182L188.231 476.273H190.413L192.424 482.864H192.515L194.532 476.273H196.719L193.225 486.057C193.062 486.519 192.846 486.915 192.577 487.244C192.308 487.578 191.979 487.831 191.589 488.006C191.202 488.184 190.74 488.273 190.202 488.273ZM202.112 488.273V476.273H204.134V477.716H204.254C204.36 477.504 204.509 477.278 204.702 477.04C204.896 476.797 205.157 476.591 205.487 476.42C205.816 476.246 206.237 476.159 206.748 476.159C207.422 476.159 208.03 476.331 208.572 476.676C209.117 477.017 209.549 477.523 209.867 478.193C210.189 478.86 210.35 479.678 210.35 480.648C210.35 481.606 210.193 482.42 209.879 483.091C209.564 483.761 209.136 484.273 208.594 484.625C208.053 484.977 207.439 485.153 206.754 485.153C206.254 485.153 205.839 485.07 205.509 484.903C205.18 484.737 204.915 484.536 204.714 484.301C204.517 484.062 204.363 483.837 204.254 483.625H204.168V488.273H202.112ZM204.129 480.636C204.129 481.201 204.208 481.695 204.367 482.119C204.53 482.544 204.763 482.875 205.066 483.114C205.373 483.348 205.744 483.466 206.18 483.466C206.634 483.466 207.015 483.345 207.322 483.102C207.629 482.856 207.86 482.521 208.015 482.097C208.174 481.669 208.254 481.182 208.254 480.636C208.254 480.095 208.176 479.614 208.021 479.193C207.865 478.773 207.634 478.443 207.327 478.205C207.021 477.966 206.638 477.847 206.18 477.847C205.74 477.847 205.367 477.962 205.06 478.193C204.754 478.424 204.521 478.748 204.362 479.165C204.206 479.581 204.129 480.072 204.129 480.636ZM214.623 485.176C214.07 485.176 213.572 485.078 213.129 484.881C212.689 484.68 212.341 484.384 212.083 483.994C211.829 483.604 211.702 483.123 211.702 482.551C211.702 482.059 211.793 481.652 211.975 481.33C212.157 481.008 212.405 480.75 212.719 480.557C213.034 480.364 213.388 480.218 213.782 480.119C214.18 480.017 214.591 479.943 215.015 479.898C215.526 479.845 215.941 479.797 216.259 479.756C216.577 479.71 216.808 479.642 216.952 479.551C217.1 479.456 217.174 479.311 217.174 479.114V479.08C217.174 478.652 217.047 478.32 216.793 478.085C216.54 477.85 216.174 477.733 215.697 477.733C215.193 477.733 214.793 477.843 214.498 478.062C214.206 478.282 214.009 478.542 213.907 478.841L211.987 478.568C212.138 478.038 212.388 477.595 212.737 477.239C213.085 476.879 213.511 476.61 214.015 476.432C214.519 476.25 215.076 476.159 215.685 476.159C216.106 476.159 216.524 476.208 216.941 476.307C217.358 476.405 217.738 476.568 218.083 476.795C218.428 477.019 218.704 477.324 218.913 477.71C219.125 478.097 219.231 478.58 219.231 479.159V485H217.254V483.801H217.185C217.06 484.044 216.884 484.271 216.657 484.483C216.433 484.691 216.151 484.86 215.81 484.989C215.473 485.114 215.077 485.176 214.623 485.176ZM215.157 483.665C215.57 483.665 215.928 483.583 216.231 483.42C216.534 483.254 216.767 483.034 216.93 482.761C217.096 482.489 217.18 482.191 217.18 481.869V480.841C217.115 480.894 217.005 480.943 216.85 480.989C216.699 481.034 216.528 481.074 216.339 481.108C216.149 481.142 215.962 481.172 215.776 481.199C215.591 481.225 215.43 481.248 215.293 481.267C214.987 481.309 214.712 481.377 214.469 481.472C214.227 481.566 214.036 481.699 213.896 481.869C213.755 482.036 213.685 482.252 213.685 482.517C213.685 482.896 213.824 483.182 214.1 483.375C214.377 483.568 214.729 483.665 215.157 483.665ZM228.197 478.58L226.322 478.784C226.269 478.595 226.176 478.417 226.043 478.25C225.915 478.083 225.74 477.949 225.521 477.847C225.301 477.744 225.032 477.693 224.714 477.693C224.286 477.693 223.926 477.786 223.634 477.972C223.346 478.157 223.204 478.398 223.208 478.693C223.204 478.947 223.297 479.153 223.487 479.312C223.68 479.472 223.998 479.602 224.441 479.705L225.93 480.023C226.755 480.201 227.369 480.483 227.771 480.869C228.176 481.256 228.38 481.761 228.384 482.386C228.38 482.936 228.219 483.42 227.901 483.841C227.587 484.258 227.149 484.583 226.589 484.818C226.028 485.053 225.384 485.17 224.657 485.17C223.589 485.17 222.729 484.947 222.077 484.5C221.426 484.049 221.038 483.422 220.913 482.619L222.918 482.426C223.009 482.82 223.202 483.117 223.498 483.318C223.793 483.519 224.178 483.619 224.651 483.619C225.14 483.619 225.532 483.519 225.827 483.318C226.127 483.117 226.276 482.869 226.276 482.574C226.276 482.324 226.18 482.117 225.987 481.955C225.797 481.792 225.502 481.667 225.1 481.58L223.612 481.267C222.774 481.093 222.155 480.799 221.754 480.386C221.352 479.97 221.153 479.443 221.157 478.807C221.153 478.269 221.299 477.803 221.594 477.409C221.894 477.011 222.308 476.705 222.839 476.489C223.373 476.269 223.988 476.159 224.685 476.159C225.708 476.159 226.513 476.377 227.1 476.812C227.691 477.248 228.057 477.837 228.197 478.58ZM236.978 478.58L235.103 478.784C235.05 478.595 234.957 478.417 234.825 478.25C234.696 478.083 234.522 477.949 234.302 477.847C234.082 477.744 233.813 477.693 233.495 477.693C233.067 477.693 232.707 477.786 232.415 477.972C232.128 478.157 231.986 478.398 231.989 478.693C231.986 478.947 232.078 479.153 232.268 479.312C232.461 479.472 232.779 479.602 233.222 479.705L234.711 480.023C235.537 480.201 236.15 480.483 236.552 480.869C236.957 481.256 237.162 481.761 237.165 482.386C237.162 482.936 237.001 483.42 236.683 483.841C236.368 484.258 235.931 484.583 235.37 484.818C234.809 485.053 234.165 485.17 233.438 485.17C232.37 485.17 231.51 484.947 230.859 484.5C230.207 484.049 229.819 483.422 229.694 482.619L231.7 482.426C231.79 482.82 231.984 483.117 232.279 483.318C232.575 483.519 232.959 483.619 233.433 483.619C233.921 483.619 234.313 483.519 234.609 483.318C234.908 483.117 235.058 482.869 235.058 482.574C235.058 482.324 234.961 482.117 234.768 481.955C234.578 481.792 234.283 481.667 233.881 481.58L232.393 481.267C231.556 481.093 230.936 480.799 230.535 480.386C230.133 479.97 229.934 479.443 229.938 478.807C229.934 478.269 230.08 477.803 230.376 477.409C230.675 477.011 231.09 476.705 231.62 476.489C232.154 476.269 232.77 476.159 233.467 476.159C234.489 476.159 235.294 476.377 235.881 476.812C236.472 477.248 236.838 477.837 236.978 478.58ZM240.663 485L238.197 476.273H240.293L241.827 482.409H241.907L243.475 476.273H245.549L247.117 482.375H247.202L248.714 476.273H250.816L248.344 485H246.202L244.566 479.102H244.447L242.81 485H240.663ZM255.809 485.17C254.957 485.17 254.218 484.983 253.593 484.608C252.968 484.233 252.483 483.708 252.138 483.034C251.798 482.36 251.627 481.572 251.627 480.67C251.627 479.769 251.798 478.979 252.138 478.301C252.483 477.623 252.968 477.097 253.593 476.722C254.218 476.347 254.957 476.159 255.809 476.159C256.661 476.159 257.4 476.347 258.025 476.722C258.65 477.097 259.133 477.623 259.474 478.301C259.818 478.979 259.991 479.769 259.991 480.67C259.991 481.572 259.818 482.36 259.474 483.034C259.133 483.708 258.65 484.233 258.025 484.608C257.4 484.983 256.661 485.17 255.809 485.17ZM255.82 483.523C256.282 483.523 256.669 483.396 256.979 483.142C257.29 482.884 257.521 482.54 257.673 482.108C257.828 481.676 257.906 481.195 257.906 480.665C257.906 480.131 257.828 479.648 257.673 479.216C257.521 478.78 257.29 478.434 256.979 478.176C256.669 477.919 256.282 477.79 255.82 477.79C255.347 477.79 254.953 477.919 254.638 478.176C254.328 478.434 254.095 478.78 253.94 479.216C253.788 479.648 253.712 480.131 253.712 480.665C253.712 481.195 253.788 481.676 253.94 482.108C254.095 482.54 254.328 482.884 254.638 483.142C254.953 483.396 255.347 483.523 255.82 483.523ZM261.737 485V476.273H263.731V477.727H263.822C263.981 477.223 264.254 476.835 264.64 476.562C265.03 476.286 265.475 476.148 265.975 476.148C266.089 476.148 266.216 476.153 266.356 476.165C266.5 476.172 266.619 476.186 266.714 476.205V478.097C266.627 478.066 266.488 478.04 266.299 478.017C266.113 477.991 265.933 477.977 265.759 477.977C265.384 477.977 265.047 478.059 264.748 478.222C264.452 478.381 264.219 478.602 264.049 478.886C263.879 479.17 263.793 479.498 263.793 479.869V485H261.737ZM270.96 485.153C270.274 485.153 269.66 484.977 269.119 484.625C268.577 484.273 268.149 483.761 267.835 483.091C267.52 482.42 267.363 481.606 267.363 480.648C267.363 479.678 267.522 478.86 267.84 478.193C268.162 477.523 268.596 477.017 269.141 476.676C269.687 476.331 270.295 476.159 270.965 476.159C271.477 476.159 271.897 476.246 272.227 476.42C272.556 476.591 272.817 476.797 273.011 477.04C273.204 477.278 273.353 477.504 273.46 477.716H273.545V473.364H275.607V485H273.585V483.625H273.46C273.353 483.837 273.2 484.062 272.999 484.301C272.799 484.536 272.533 484.737 272.204 484.903C271.874 485.07 271.46 485.153 270.96 485.153ZM271.533 483.466C271.969 483.466 272.34 483.348 272.647 483.114C272.954 482.875 273.187 482.544 273.346 482.119C273.505 481.695 273.585 481.201 273.585 480.636C273.585 480.072 273.505 479.581 273.346 479.165C273.191 478.748 272.96 478.424 272.653 478.193C272.35 477.962 271.977 477.847 271.533 477.847C271.075 477.847 270.692 477.966 270.386 478.205C270.079 478.443 269.848 478.773 269.692 479.193C269.537 479.614 269.46 480.095 269.46 480.636C269.46 481.182 269.537 481.669 269.692 482.097C269.852 482.521 270.085 482.856 270.391 483.102C270.702 483.345 271.083 483.466 271.533 483.466Z" fill="#67DC41"/>
<path d="M120.118 560.818V571H118.477L113.679 564.065H113.595V571H111.75V560.818H113.401L118.194 567.759H118.283V560.818H120.118ZM125.428 571.149C124.663 571.149 124.002 570.99 123.445 570.672C122.891 570.35 122.465 569.896 122.167 569.31C121.869 568.72 121.72 568.025 121.72 567.227C121.72 566.441 121.869 565.752 122.167 565.158C122.469 564.562 122.89 564.098 123.43 563.766C123.97 563.432 124.605 563.264 125.334 563.264C125.805 563.264 126.249 563.34 126.666 563.493C127.087 563.642 127.459 563.874 127.78 564.189C128.105 564.504 128.36 564.905 128.546 565.392C128.731 565.876 128.824 566.453 128.824 567.122V567.674H122.565V566.461H127.099C127.096 566.116 127.021 565.81 126.875 565.541C126.729 565.269 126.526 565.056 126.264 564.9C126.005 564.744 125.704 564.666 125.359 564.666C124.991 564.666 124.668 564.756 124.389 564.935C124.111 565.11 123.894 565.342 123.738 565.631C123.586 565.916 123.508 566.229 123.504 566.57V567.629C123.504 568.073 123.586 568.455 123.748 568.773C123.91 569.088 124.137 569.33 124.429 569.499C124.721 569.664 125.062 569.747 125.453 569.747C125.715 569.747 125.952 569.711 126.164 569.638C126.376 569.562 126.56 569.451 126.716 569.305C126.872 569.159 126.99 568.978 127.069 568.763L128.749 568.952C128.643 569.396 128.441 569.784 128.143 570.115C127.848 570.443 127.47 570.698 127.009 570.881C126.549 571.06 126.022 571.149 125.428 571.149ZM131.882 571L129.724 563.364H131.558L132.901 568.733H132.97L134.343 563.364H136.157L137.529 568.703H137.604L138.926 563.364H140.766L138.603 571H136.729L135.297 565.839H135.193L133.761 571H131.882ZM150.362 567.788V563.364H152.162V571H150.417V569.643H150.337C150.165 570.07 149.882 570.42 149.487 570.692C149.096 570.964 148.614 571.099 148.04 571.099C147.54 571.099 147.098 570.988 146.713 570.766C146.332 570.541 146.034 570.214 145.818 569.787C145.603 569.356 145.495 568.836 145.495 568.226V563.364H147.295V567.947C147.295 568.431 147.427 568.816 147.692 569.101C147.958 569.386 148.306 569.528 148.737 569.528C149.002 569.528 149.259 569.464 149.507 569.335C149.756 569.205 149.96 569.013 150.119 568.758C150.281 568.499 150.362 568.176 150.362 567.788ZM160.048 565.382L158.407 565.561C158.361 565.395 158.28 565.24 158.164 565.094C158.051 564.948 157.899 564.83 157.706 564.741C157.514 564.651 157.279 564.607 157.001 564.607C156.626 564.607 156.311 564.688 156.056 564.85C155.804 565.013 155.68 565.223 155.683 565.482C155.68 565.704 155.761 565.884 155.927 566.023C156.096 566.163 156.374 566.277 156.762 566.366L158.064 566.645C158.787 566.801 159.324 567.048 159.675 567.386C160.03 567.724 160.209 568.166 160.212 568.713C160.209 569.194 160.068 569.618 159.79 569.986C159.515 570.35 159.132 570.635 158.641 570.841C158.151 571.046 157.587 571.149 156.951 571.149C156.016 571.149 155.264 570.954 154.694 570.562C154.124 570.168 153.784 569.62 153.675 568.917L155.43 568.748C155.509 569.093 155.678 569.353 155.937 569.528C156.195 569.704 156.532 569.792 156.946 569.792C157.373 569.792 157.716 569.704 157.975 569.528C158.237 569.353 158.368 569.136 158.368 568.877C158.368 568.658 158.283 568.478 158.114 568.335C157.948 568.193 157.69 568.083 157.339 568.007L156.036 567.734C155.304 567.581 154.762 567.324 154.41 566.963C154.059 566.598 153.885 566.138 153.888 565.581C153.885 565.11 154.013 564.703 154.271 564.358C154.533 564.01 154.896 563.741 155.36 563.553C155.827 563.36 156.366 563.264 156.976 563.264C157.871 563.264 158.575 563.455 159.089 563.836C159.606 564.217 159.925 564.732 160.048 565.382ZM165.077 571.149C164.311 571.149 163.65 570.99 163.093 570.672C162.54 570.35 162.114 569.896 161.816 569.31C161.517 568.72 161.368 568.025 161.368 567.227C161.368 566.441 161.517 565.752 161.816 565.158C162.117 564.562 162.538 564.098 163.078 563.766C163.619 563.432 164.253 563.264 164.982 563.264C165.453 563.264 165.897 563.34 166.315 563.493C166.736 563.642 167.107 563.874 167.428 564.189C167.753 564.504 168.008 564.905 168.194 565.392C168.38 565.876 168.472 566.453 168.472 567.122V567.674H162.213V566.461H166.747C166.744 566.116 166.669 565.81 166.524 565.541C166.378 565.269 166.174 565.056 165.912 564.9C165.654 564.744 165.352 564.666 165.007 564.666C164.639 564.666 164.316 564.756 164.038 564.935C163.759 565.11 163.542 565.342 163.387 565.631C163.234 565.916 163.156 566.229 163.153 566.57V567.629C163.153 568.073 163.234 568.455 163.396 568.773C163.559 569.088 163.786 569.33 164.078 569.499C164.369 569.664 164.711 569.747 165.102 569.747C165.364 569.747 165.601 569.711 165.813 569.638C166.025 569.562 166.209 569.451 166.365 569.305C166.52 569.159 166.638 568.978 166.718 568.763L168.398 568.952C168.292 569.396 168.09 569.784 167.791 570.115C167.496 570.443 167.119 570.698 166.658 570.881C166.197 571.06 165.67 571.149 165.077 571.149ZM169.995 571V563.364H171.74V564.636H171.82C171.959 564.196 172.197 563.856 172.536 563.617C172.877 563.375 173.266 563.254 173.704 563.254C173.803 563.254 173.914 563.259 174.037 563.269C174.163 563.276 174.267 563.287 174.35 563.304V564.96C174.274 564.933 174.153 564.91 173.987 564.89C173.825 564.867 173.667 564.855 173.515 564.855C173.187 564.855 172.892 564.926 172.63 565.069C172.371 565.208 172.168 565.402 172.018 565.651C171.869 565.899 171.795 566.186 171.795 566.511V571H169.995ZM177.266 568.007V567.878C177.269 567.278 177.326 566.801 177.435 566.446C177.548 566.091 177.707 565.806 177.912 565.591C178.118 565.372 178.368 565.172 178.663 564.989C178.865 564.863 179.046 564.726 179.205 564.577C179.367 564.424 179.495 564.255 179.588 564.07C179.681 563.881 179.727 563.67 179.727 563.438C179.727 563.176 179.666 562.949 179.543 562.757C179.42 562.565 179.255 562.416 179.046 562.31C178.84 562.204 178.61 562.151 178.355 562.151C178.119 562.151 177.896 562.202 177.684 562.305C177.475 562.404 177.301 562.557 177.162 562.762C177.026 562.964 176.949 563.221 176.933 563.533H175.163C175.18 562.903 175.332 562.376 175.62 561.952C175.912 561.527 176.297 561.209 176.774 560.997C177.254 560.785 177.785 560.679 178.365 560.679C178.998 560.679 179.555 560.79 180.035 561.012C180.519 561.234 180.895 561.551 181.164 561.962C181.435 562.369 181.571 562.853 181.571 563.413C181.571 563.791 181.51 564.129 181.387 564.428C181.268 564.726 181.097 564.991 180.875 565.223C180.653 565.455 180.39 565.662 180.085 565.844C179.816 566.01 179.596 566.183 179.424 566.362C179.255 566.54 179.129 566.751 179.046 566.993C178.966 567.232 178.925 567.527 178.922 567.878V568.007H177.266ZM178.131 571.109C177.833 571.109 177.576 571.003 177.36 570.791C177.145 570.579 177.037 570.321 177.037 570.016C177.037 569.717 177.145 569.462 177.36 569.25C177.576 569.038 177.833 568.932 178.131 568.932C178.426 568.932 178.681 569.038 178.897 569.25C179.115 569.462 179.225 569.717 179.225 570.016C179.225 570.218 179.173 570.402 179.071 570.567C178.971 570.733 178.839 570.866 178.673 570.965C178.511 571.061 178.33 571.109 178.131 571.109ZM186.713 571V560.818H190.531C191.314 560.818 191.97 560.954 192.5 561.226C193.034 561.498 193.436 561.879 193.708 562.369C193.983 562.857 194.121 563.425 194.121 564.075C194.121 564.728 193.982 565.294 193.703 565.775C193.428 566.252 193.022 566.622 192.485 566.884C191.948 567.142 191.289 567.271 190.507 567.271H187.787V565.74H190.258C190.715 565.74 191.09 565.677 191.382 565.551C191.673 565.422 191.889 565.235 192.028 564.989C192.17 564.741 192.242 564.436 192.242 564.075C192.242 563.713 192.17 563.405 192.028 563.15C191.885 562.891 191.668 562.696 191.377 562.563C191.085 562.427 190.709 562.359 190.248 562.359H188.558V571H186.713ZM191.973 566.386L194.494 571H192.436L189.96 566.386H191.973ZM199.01 571.149C198.245 571.149 197.584 570.99 197.027 570.672C196.473 570.35 196.047 569.896 195.749 569.31C195.451 568.72 195.302 568.025 195.302 567.227C195.302 566.441 195.451 565.752 195.749 565.158C196.051 564.562 196.472 564.098 197.012 563.766C197.552 563.432 198.187 563.264 198.916 563.264C199.387 563.264 199.831 563.34 200.248 563.493C200.669 563.642 201.041 563.874 201.362 564.189C201.687 564.504 201.942 564.905 202.128 565.392C202.313 565.876 202.406 566.453 202.406 567.122V567.674H196.147V566.461H200.681C200.678 566.116 200.603 565.81 200.457 565.541C200.311 565.269 200.108 565.056 199.846 564.9C199.587 564.744 199.286 564.666 198.941 564.666C198.573 564.666 198.25 564.756 197.971 564.935C197.693 565.11 197.476 565.342 197.32 565.631C197.168 565.916 197.09 566.229 197.086 566.57V567.629C197.086 568.073 197.168 568.455 197.33 568.773C197.492 569.088 197.72 569.33 198.011 569.499C198.303 569.664 198.644 569.747 199.035 569.747C199.297 569.747 199.534 569.711 199.746 569.638C199.958 569.562 200.142 569.451 200.298 569.305C200.454 569.159 200.572 568.978 200.651 568.763L202.331 568.952C202.225 569.396 202.023 569.784 201.725 570.115C201.43 570.443 201.052 570.698 200.591 570.881C200.131 571.06 199.604 571.149 199.01 571.149ZM207.25 574.023C206.603 574.023 206.048 573.935 205.584 573.759C205.12 573.587 204.747 573.355 204.466 573.063C204.184 572.772 203.988 572.448 203.879 572.094L205.5 571.701C205.573 571.85 205.679 571.998 205.818 572.143C205.957 572.293 206.144 572.415 206.38 572.511C206.618 572.611 206.918 572.661 207.279 572.661C207.79 572.661 208.212 572.536 208.547 572.288C208.882 572.042 209.049 571.638 209.049 571.075V569.628H208.96C208.867 569.813 208.731 570.004 208.552 570.2C208.377 570.395 208.143 570.559 207.851 570.692C207.563 570.824 207.2 570.891 206.762 570.891C206.176 570.891 205.644 570.753 205.167 570.478C204.693 570.2 204.315 569.785 204.033 569.235C203.755 568.682 203.615 567.989 203.615 567.157C203.615 566.318 203.755 565.611 204.033 565.034C204.315 564.454 204.694 564.015 205.172 563.717C205.649 563.415 206.181 563.264 206.767 563.264C207.215 563.264 207.583 563.34 207.871 563.493C208.163 563.642 208.395 563.823 208.567 564.035C208.739 564.244 208.87 564.441 208.96 564.626H209.059V563.364H210.834V571.124C210.834 571.777 210.678 572.317 210.367 572.745C210.055 573.173 209.629 573.492 209.089 573.705C208.549 573.917 207.936 574.023 207.25 574.023ZM207.265 569.479C207.646 569.479 207.971 569.386 208.239 569.2C208.507 569.015 208.711 568.748 208.85 568.4C208.99 568.052 209.059 567.634 209.059 567.147C209.059 566.666 208.99 566.246 208.85 565.884C208.715 565.523 208.512 565.243 208.244 565.044C207.979 564.842 207.652 564.741 207.265 564.741C206.864 564.741 206.529 564.845 206.26 565.054C205.992 565.263 205.79 565.549 205.654 565.914C205.518 566.275 205.45 566.686 205.45 567.147C205.45 567.614 205.518 568.024 205.654 568.375C205.793 568.723 205.997 568.995 206.265 569.19C206.537 569.383 206.87 569.479 207.265 569.479ZM212.679 571V563.364H214.478V571H212.679ZM213.583 562.28C213.298 562.28 213.053 562.185 212.848 561.996C212.642 561.804 212.539 561.574 212.539 561.305C212.539 561.034 212.642 560.803 212.848 560.614C213.053 560.422 213.298 560.326 213.583 560.326C213.872 560.326 214.117 560.422 214.319 560.614C214.525 560.803 214.627 561.034 214.627 561.305C214.627 561.574 214.525 561.804 214.319 561.996C214.117 562.185 213.872 562.28 213.583 562.28ZM222.365 565.382L220.724 565.561C220.677 565.395 220.596 565.24 220.48 565.094C220.368 564.948 220.215 564.83 220.023 564.741C219.831 564.651 219.595 564.607 219.317 564.607C218.942 564.607 218.628 564.688 218.372 564.85C218.12 565.013 217.996 565.223 217.999 565.482C217.996 565.704 218.077 565.884 218.243 566.023C218.412 566.163 218.691 566.277 219.078 566.366L220.381 566.645C221.103 566.801 221.64 567.048 221.992 567.386C222.346 567.724 222.525 568.166 222.529 568.713C222.525 569.194 222.384 569.618 222.106 569.986C221.831 570.35 221.448 570.635 220.958 570.841C220.467 571.046 219.904 571.149 219.267 571.149C218.333 571.149 217.58 570.954 217.01 570.562C216.44 570.168 216.1 569.62 215.991 568.917L217.746 568.748C217.825 569.093 217.994 569.353 218.253 569.528C218.512 569.704 218.848 569.792 219.262 569.792C219.69 569.792 220.033 569.704 220.291 569.528C220.553 569.353 220.684 569.136 220.684 568.877C220.684 568.658 220.6 568.478 220.431 568.335C220.265 568.193 220.006 568.083 219.655 568.007L218.352 567.734C217.62 567.581 217.078 567.324 216.727 566.963C216.375 566.598 216.201 566.138 216.205 565.581C216.201 565.11 216.329 564.703 216.588 564.358C216.849 564.01 217.212 563.741 217.676 563.553C218.144 563.36 218.682 563.264 219.292 563.264C220.187 563.264 220.891 563.455 221.405 563.836C221.922 564.217 222.242 564.732 222.365 565.382ZM227.826 563.364V564.756H223.436V563.364H227.826ZM224.52 561.534H226.319V568.703C226.319 568.945 226.356 569.131 226.429 569.26C226.505 569.386 226.604 569.472 226.727 569.518C226.85 569.565 226.986 569.588 227.135 569.588C227.247 569.588 227.35 569.58 227.443 569.563C227.539 569.547 227.612 569.532 227.662 569.518L227.965 570.925C227.869 570.959 227.731 570.995 227.552 571.035C227.377 571.075 227.161 571.098 226.906 571.104C226.455 571.118 226.049 571.05 225.688 570.901C225.327 570.748 225.04 570.513 224.828 570.195C224.619 569.876 224.516 569.479 224.52 569.001V561.534ZM232.63 571.149C231.864 571.149 231.203 570.99 230.646 570.672C230.092 570.35 229.667 569.896 229.368 569.31C229.07 568.72 228.921 568.025 228.921 567.227C228.921 566.441 229.07 565.752 229.368 565.158C229.67 564.562 230.091 564.098 230.631 563.766C231.171 563.432 231.806 563.264 232.535 563.264C233.006 563.264 233.45 563.34 233.868 563.493C234.288 563.642 234.66 563.874 234.981 564.189C235.306 564.504 235.561 564.905 235.747 565.392C235.932 565.876 236.025 566.453 236.025 567.122V567.674H229.766V566.461H234.3C234.297 566.116 234.222 565.81 234.076 565.541C233.931 565.269 233.727 565.056 233.465 564.9C233.206 564.744 232.905 564.666 232.56 564.666C232.192 564.666 231.869 564.756 231.591 564.935C231.312 565.11 231.095 565.342 230.939 565.631C230.787 565.916 230.709 566.229 230.706 566.57V567.629C230.706 568.073 230.787 568.455 230.949 568.773C231.112 569.088 231.339 569.33 231.63 569.499C231.922 569.664 232.263 569.747 232.654 569.747C232.916 569.747 233.153 569.711 233.365 569.638C233.578 569.562 233.761 569.451 233.917 569.305C234.073 569.159 234.191 568.978 234.27 568.763L235.951 568.952C235.845 569.396 235.642 569.784 235.344 570.115C235.049 570.443 234.671 570.698 234.211 570.881C233.75 571.06 233.223 571.149 232.63 571.149ZM237.548 571V563.364H239.293V564.636H239.372C239.512 564.196 239.75 563.856 240.088 563.617C240.43 563.375 240.819 563.254 241.257 563.254C241.356 563.254 241.467 563.259 241.59 563.269C241.716 563.276 241.82 563.287 241.903 563.304V564.96C241.827 564.933 241.706 564.91 241.54 564.89C241.378 564.867 241.22 564.855 241.068 564.855C240.74 564.855 240.445 564.926 240.183 565.069C239.924 565.208 239.72 565.402 239.571 565.651C239.422 565.899 239.347 566.186 239.347 566.511V571H237.548ZM248.371 566.526V571H246.571V563.364H248.291V564.661H248.381C248.557 564.234 248.837 563.894 249.221 563.642C249.609 563.39 250.088 563.264 250.658 563.264C251.185 563.264 251.644 563.377 252.035 563.602C252.429 563.828 252.734 564.154 252.95 564.582C253.169 565.009 253.276 565.528 253.273 566.138V571H251.473V566.416C251.473 565.906 251.341 565.506 251.075 565.218C250.814 564.93 250.451 564.786 249.987 564.786C249.672 564.786 249.392 564.855 249.146 564.994C248.905 565.13 248.714 565.327 248.575 565.586C248.439 565.844 248.371 566.158 248.371 566.526ZM258.433 571.149C257.688 571.149 257.041 570.985 256.494 570.657C255.948 570.329 255.523 569.87 255.222 569.28C254.923 568.69 254.774 568 254.774 567.212C254.774 566.423 254.923 565.732 255.222 565.138C255.523 564.545 255.948 564.085 256.494 563.756C257.041 563.428 257.688 563.264 258.433 563.264C259.179 563.264 259.825 563.428 260.372 563.756C260.919 564.085 261.342 564.545 261.64 565.138C261.942 565.732 262.093 566.423 262.093 567.212C262.093 568 261.942 568.69 261.64 569.28C261.342 569.87 260.919 570.329 260.372 570.657C259.825 570.985 259.179 571.149 258.433 571.149ZM258.443 569.707C258.848 569.707 259.186 569.596 259.458 569.374C259.729 569.149 259.932 568.847 260.064 568.469C260.2 568.092 260.268 567.671 260.268 567.207C260.268 566.739 260.2 566.317 260.064 565.939C259.932 565.558 259.729 565.254 259.458 565.029C259.186 564.804 258.848 564.691 258.443 564.691C258.029 564.691 257.684 564.804 257.409 565.029C257.137 565.254 256.934 565.558 256.798 565.939C256.665 566.317 256.599 566.739 256.599 567.207C256.599 567.671 256.665 568.092 256.798 568.469C256.934 568.847 257.137 569.149 257.409 569.374C257.684 569.596 258.029 569.707 258.443 569.707ZM264.977 571L262.82 563.364H264.654L265.996 568.733H266.066L267.438 563.364H269.253L270.625 568.703H270.7L272.022 563.364H273.862L271.699 571H269.825L268.393 565.839H268.288L266.857 571H264.977ZM276.227 571.109C275.925 571.109 275.667 571.003 275.451 570.791C275.236 570.579 275.13 570.321 275.133 570.016C275.13 569.717 275.236 569.462 275.451 569.25C275.667 569.038 275.925 568.932 276.227 568.932C276.518 568.932 276.772 569.038 276.987 569.25C277.206 569.462 277.317 569.717 277.32 570.016C277.317 570.218 277.264 570.402 277.161 570.567C277.062 570.733 276.929 570.866 276.764 570.965C276.601 571.061 276.422 571.109 276.227 571.109ZM276.227 565.661C275.925 565.661 275.667 565.554 275.451 565.342C275.236 565.127 275.13 564.868 275.133 564.567C275.13 564.268 275.236 564.013 275.451 563.801C275.667 563.586 275.925 563.478 276.227 563.478C276.518 563.478 276.772 563.586 276.987 563.801C277.206 564.013 277.317 564.268 277.32 564.567C277.317 564.766 277.264 564.948 277.161 565.114C277.062 565.279 276.929 565.412 276.764 565.511C276.601 565.611 276.422 565.661 276.227 565.661Z" fill="#67DC41"/>
<rect x="24" y="400" width="343" height="51" rx="25.5" fill="#67DC41"/>
<path d="M175.288 431V419.364H177.396V429.233H182.521V431H175.288ZM188.067 431.17C187.214 431.17 186.476 430.983 185.851 430.608C185.226 430.233 184.741 429.708 184.396 429.034C184.055 428.36 183.885 427.572 183.885 426.67C183.885 425.769 184.055 424.979 184.396 424.301C184.741 423.623 185.226 423.097 185.851 422.722C186.476 422.347 187.214 422.159 188.067 422.159C188.919 422.159 189.658 422.347 190.283 422.722C190.908 423.097 191.391 423.623 191.732 424.301C192.076 424.979 192.249 425.769 192.249 426.67C192.249 427.572 192.076 428.36 191.732 429.034C191.391 429.708 190.908 430.233 190.283 430.608C189.658 430.983 188.919 431.17 188.067 431.17ZM188.078 429.523C188.54 429.523 188.927 429.396 189.237 429.142C189.548 428.884 189.779 428.54 189.93 428.108C190.086 427.676 190.163 427.195 190.163 426.665C190.163 426.131 190.086 425.648 189.93 425.216C189.779 424.78 189.548 424.434 189.237 424.176C188.927 423.919 188.54 423.79 188.078 423.79C187.605 423.79 187.211 423.919 186.896 424.176C186.586 424.434 186.353 424.78 186.197 425.216C186.046 425.648 185.97 426.131 185.97 426.665C185.97 427.195 186.046 427.676 186.197 428.108C186.353 428.54 186.586 428.884 186.896 429.142C187.211 429.396 187.605 429.523 188.078 429.523ZM197.79 434.455C197.051 434.455 196.417 434.354 195.886 434.153C195.356 433.956 194.93 433.691 194.608 433.358C194.286 433.025 194.062 432.655 193.938 432.25L195.79 431.801C195.873 431.972 195.994 432.14 196.153 432.307C196.313 432.477 196.527 432.617 196.795 432.727C197.068 432.841 197.411 432.898 197.824 432.898C198.407 432.898 198.89 432.756 199.273 432.472C199.655 432.191 199.847 431.729 199.847 431.085V429.432H199.744C199.638 429.644 199.483 429.862 199.278 430.085C199.078 430.309 198.811 430.496 198.477 430.648C198.148 430.799 197.733 430.875 197.233 430.875C196.562 430.875 195.955 430.718 195.409 430.403C194.867 430.085 194.436 429.612 194.114 428.983C193.795 428.35 193.636 427.559 193.636 426.608C193.636 425.65 193.795 424.841 194.114 424.182C194.436 423.519 194.869 423.017 195.415 422.676C195.96 422.331 196.568 422.159 197.239 422.159C197.75 422.159 198.17 422.246 198.5 422.42C198.833 422.591 199.098 422.797 199.295 423.04C199.492 423.278 199.642 423.504 199.744 423.716H199.858V422.273H201.886V431.142C201.886 431.888 201.708 432.506 201.352 432.994C200.996 433.483 200.509 433.848 199.892 434.091C199.275 434.333 198.574 434.455 197.79 434.455ZM197.807 429.261C198.242 429.261 198.614 429.155 198.92 428.943C199.227 428.731 199.46 428.426 199.619 428.028C199.778 427.631 199.858 427.153 199.858 426.597C199.858 426.047 199.778 425.566 199.619 425.153C199.464 424.741 199.233 424.42 198.926 424.193C198.623 423.962 198.25 423.847 197.807 423.847C197.348 423.847 196.966 423.966 196.659 424.205C196.352 424.443 196.121 424.771 195.966 425.188C195.811 425.6 195.733 426.07 195.733 426.597C195.733 427.131 195.811 427.598 195.966 428C196.125 428.398 196.358 428.708 196.665 428.932C196.975 429.152 197.356 429.261 197.807 429.261ZM203.994 431V422.273H206.051V431H203.994ZM205.028 421.034C204.703 421.034 204.422 420.926 204.188 420.71C203.953 420.491 203.835 420.227 203.835 419.92C203.835 419.61 203.953 419.347 204.188 419.131C204.422 418.911 204.703 418.801 205.028 418.801C205.358 418.801 205.638 418.911 205.869 419.131C206.104 419.347 206.222 419.61 206.222 419.92C206.222 420.227 206.104 420.491 205.869 420.71C205.638 420.926 205.358 421.034 205.028 421.034ZM210.223 425.886V431H208.166V422.273H210.132V423.756H210.234C210.435 423.267 210.755 422.879 211.195 422.591C211.638 422.303 212.185 422.159 212.837 422.159C213.439 422.159 213.964 422.288 214.411 422.545C214.861 422.803 215.21 423.176 215.456 423.665C215.706 424.153 215.829 424.746 215.825 425.443V431H213.768V425.761C213.768 425.178 213.617 424.722 213.314 424.392C213.015 424.062 212.6 423.898 212.07 423.898C211.71 423.898 211.39 423.977 211.109 424.136C210.833 424.292 210.615 424.517 210.456 424.812C210.301 425.108 210.223 425.466 210.223 425.886Z" fill="white"/>
<rect x="140" y="590" width="111" height="31" rx="8" fill="#67DC41"/>
<path d="M168.272 611V600.818H172.09C172.872 600.818 173.528 600.954 174.059 601.226C174.592 601.498 174.995 601.879 175.267 602.369C175.542 602.857 175.68 603.425 175.68 604.075C175.68 604.728 175.54 605.294 175.262 605.775C174.987 606.252 174.581 606.622 174.044 606.884C173.507 607.142 172.847 607.271 172.065 607.271H169.346V605.74H171.817C172.274 605.74 172.648 605.677 172.94 605.551C173.232 605.422 173.447 605.235 173.586 604.989C173.729 604.741 173.8 604.436 173.8 604.075C173.8 603.713 173.729 603.405 173.586 603.15C173.444 602.891 173.227 602.696 172.935 602.563C172.644 602.427 172.267 602.359 171.807 602.359H170.116V611H168.272ZM173.532 606.386L176.052 611H173.994L171.518 606.386H173.532ZM180.569 611.149C179.803 611.149 179.142 610.99 178.585 610.672C178.032 610.35 177.606 609.896 177.308 609.31C177.009 608.72 176.86 608.025 176.86 607.227C176.86 606.441 177.009 605.752 177.308 605.158C177.609 604.562 178.03 604.098 178.57 603.766C179.111 603.432 179.745 603.264 180.475 603.264C180.945 603.264 181.389 603.34 181.807 603.493C182.228 603.642 182.599 603.874 182.921 604.189C183.245 604.504 183.501 604.905 183.686 605.392C183.872 605.876 183.965 606.453 183.965 607.122V607.674H177.705V606.461H182.24C182.236 606.116 182.162 605.81 182.016 605.541C181.87 605.269 181.666 605.056 181.404 604.9C181.146 604.744 180.844 604.666 180.499 604.666C180.132 604.666 179.808 604.756 179.53 604.935C179.252 605.11 179.035 605.342 178.879 605.631C178.726 605.916 178.648 606.229 178.645 606.57V607.629C178.645 608.073 178.726 608.455 178.889 608.773C179.051 609.088 179.278 609.33 179.57 609.499C179.861 609.664 180.203 609.747 180.594 609.747C180.856 609.747 181.093 609.711 181.305 609.638C181.517 609.562 181.701 609.451 181.857 609.305C182.012 609.159 182.13 608.978 182.21 608.763L183.89 608.952C183.784 609.396 183.582 609.784 183.284 610.115C182.989 610.443 182.611 610.698 182.15 610.881C181.689 611.06 181.162 611.149 180.569 611.149ZM188.808 614.023C188.162 614.023 187.607 613.935 187.143 613.759C186.679 613.587 186.306 613.355 186.024 613.063C185.742 612.772 185.547 612.448 185.438 612.094L187.058 611.701C187.131 611.85 187.237 611.998 187.376 612.143C187.516 612.293 187.703 612.415 187.938 612.511C188.177 612.611 188.477 612.661 188.838 612.661C189.348 612.661 189.771 612.536 190.106 612.288C190.441 612.042 190.608 611.638 190.608 611.075V609.628H190.518C190.426 609.813 190.29 610.004 190.111 610.2C189.935 610.395 189.701 610.559 189.41 610.692C189.121 610.824 188.759 610.891 188.321 610.891C187.734 610.891 187.202 610.753 186.725 610.478C186.251 610.2 185.873 609.785 185.592 609.235C185.313 608.682 185.174 607.989 185.174 607.157C185.174 606.318 185.313 605.611 185.592 605.034C185.873 604.454 186.253 604.015 186.73 603.717C187.207 603.415 187.739 603.264 188.326 603.264C188.773 603.264 189.141 603.34 189.43 603.493C189.721 603.642 189.953 603.823 190.126 604.035C190.298 604.244 190.429 604.441 190.518 604.626H190.618V603.364H192.393V611.124C192.393 611.777 192.237 612.317 191.925 612.745C191.614 613.173 191.188 613.492 190.648 613.705C190.107 613.917 189.494 614.023 188.808 614.023ZM188.823 609.479C189.204 609.479 189.529 609.386 189.798 609.2C190.066 609.015 190.27 608.748 190.409 608.4C190.548 608.052 190.618 607.634 190.618 607.147C190.618 606.666 190.548 606.246 190.409 605.884C190.273 605.523 190.071 605.243 189.803 605.044C189.537 604.842 189.211 604.741 188.823 604.741C188.422 604.741 188.087 604.845 187.819 605.054C187.55 605.263 187.348 605.549 187.212 605.914C187.076 606.275 187.009 606.686 187.009 607.147C187.009 607.614 187.076 608.024 187.212 608.375C187.352 608.723 187.555 608.995 187.824 609.19C188.096 609.383 188.429 609.479 188.823 609.479ZM194.237 611V603.364H196.037V611H194.237ZM195.142 602.28C194.857 602.28 194.612 602.185 194.406 601.996C194.201 601.804 194.098 601.574 194.098 601.305C194.098 601.034 194.201 600.803 194.406 600.614C194.612 600.422 194.857 600.326 195.142 600.326C195.43 600.326 195.676 600.422 195.878 600.614C196.083 600.803 196.186 601.034 196.186 601.305C196.186 601.574 196.083 601.804 195.878 601.996C195.676 602.185 195.43 602.28 195.142 602.28ZM203.923 605.382L202.282 605.561C202.236 605.395 202.155 605.24 202.039 605.094C201.926 604.948 201.774 604.83 201.581 604.741C201.389 604.651 201.154 604.607 200.876 604.607C200.501 604.607 200.186 604.688 199.931 604.85C199.679 605.013 199.555 605.223 199.558 605.482C199.555 605.704 199.636 605.884 199.802 606.023C199.971 606.163 200.249 606.277 200.637 606.366L201.939 606.645C202.662 606.801 203.199 607.048 203.55 607.386C203.905 607.724 204.084 608.166 204.087 608.713C204.084 609.194 203.943 609.618 203.665 609.986C203.39 610.35 203.007 610.635 202.516 610.841C202.026 611.046 201.462 611.149 200.826 611.149C199.891 611.149 199.139 610.954 198.569 610.562C197.999 610.168 197.659 609.62 197.55 608.917L199.305 608.748C199.384 609.093 199.553 609.353 199.812 609.528C200.07 609.704 200.407 609.792 200.821 609.792C201.248 609.792 201.591 609.704 201.85 609.528C202.112 609.353 202.243 609.136 202.243 608.877C202.243 608.658 202.158 608.478 201.989 608.335C201.823 608.193 201.565 608.083 201.214 608.007L199.911 607.734C199.179 607.581 198.637 607.324 198.285 606.963C197.934 606.598 197.76 606.138 197.763 605.581C197.76 605.11 197.888 604.703 198.146 604.358C198.408 604.01 198.771 603.741 199.235 603.553C199.702 603.36 200.241 603.264 200.851 603.264C201.746 603.264 202.45 603.455 202.964 603.836C203.481 604.217 203.8 604.732 203.923 605.382ZM209.384 603.364V604.756H204.994V603.364H209.384ZM206.078 601.534H207.878V608.703C207.878 608.945 207.914 609.131 207.987 609.26C208.064 609.386 208.163 609.472 208.286 609.518C208.408 609.565 208.544 609.588 208.693 609.588C208.806 609.588 208.909 609.58 209.002 609.563C209.098 609.547 209.171 609.532 209.22 609.518L209.524 610.925C209.427 610.959 209.29 610.995 209.111 611.035C208.935 611.075 208.72 611.098 208.465 611.104C208.014 611.118 207.608 611.05 207.247 610.901C206.885 610.748 206.599 610.513 206.387 610.195C206.178 609.876 206.075 609.479 206.078 609.001V601.534ZM214.188 611.149C213.423 611.149 212.761 610.99 212.205 610.672C211.651 610.35 211.225 609.896 210.927 609.31C210.629 608.72 210.479 608.025 210.479 607.227C210.479 606.441 210.629 605.752 210.927 605.158C211.228 604.562 211.649 604.098 212.19 603.766C212.73 603.432 213.365 603.264 214.094 603.264C214.564 603.264 215.009 603.34 215.426 603.493C215.847 603.642 216.218 603.874 216.54 604.189C216.865 604.504 217.12 604.905 217.305 605.392C217.491 605.876 217.584 606.453 217.584 607.122V607.674H211.325V606.461H215.859C215.855 606.116 215.781 605.81 215.635 605.541C215.489 605.269 215.285 605.056 215.023 604.9C214.765 604.744 214.463 604.666 214.119 604.666C213.751 604.666 213.428 604.756 213.149 604.935C212.871 605.11 212.654 605.342 212.498 605.631C212.345 605.916 212.268 606.229 212.264 606.57V607.629C212.264 608.073 212.345 608.455 212.508 608.773C212.67 609.088 212.897 609.33 213.189 609.499C213.481 609.664 213.822 609.747 214.213 609.747C214.475 609.747 214.712 609.711 214.924 609.638C215.136 609.562 215.32 609.451 215.476 609.305C215.632 609.159 215.749 608.978 215.829 608.763L217.509 608.952C217.403 609.396 217.201 609.784 216.903 610.115C216.608 610.443 216.23 610.698 215.769 610.881C215.308 611.06 214.781 611.149 214.188 611.149ZM219.106 611V603.364H220.851V604.636H220.931C221.07 604.196 221.309 603.856 221.647 603.617C221.988 603.375 222.378 603.254 222.815 603.254C222.915 603.254 223.026 603.259 223.148 603.269C223.274 603.276 223.379 603.287 223.461 603.304V604.96C223.385 604.933 223.264 604.91 223.099 604.89C222.936 604.867 222.779 604.855 222.626 604.855C222.298 604.855 222.003 604.926 221.741 605.069C221.483 605.208 221.279 605.402 221.13 605.651C220.981 605.899 220.906 606.186 220.906 606.511V611H219.106Z" fill="white"/>
<path d="M159.603 204V182.182H163.556V200.687H173.165V204H159.603ZM183.563 204.32C181.965 204.32 180.58 203.968 179.408 203.265C178.236 202.562 177.327 201.578 176.681 200.314C176.041 199.05 175.722 197.572 175.722 195.882C175.722 194.192 176.041 192.711 176.681 191.44C177.327 190.168 178.236 189.181 179.408 188.478C180.58 187.775 181.965 187.423 183.563 187.423C185.161 187.423 186.546 187.775 187.718 188.478C188.889 189.181 189.795 190.168 190.434 191.44C191.08 192.711 191.404 194.192 191.404 195.882C191.404 197.572 191.08 199.05 190.434 200.314C189.795 201.578 188.889 202.562 187.718 203.265C186.546 203.968 185.161 204.32 183.563 204.32ZM183.584 201.23C184.45 201.23 185.175 200.992 185.757 200.516C186.34 200.033 186.773 199.387 187.057 198.577C187.348 197.768 187.494 196.866 187.494 195.871C187.494 194.87 187.348 193.964 187.057 193.155C186.773 192.338 186.34 191.688 185.757 191.205C185.175 190.722 184.45 190.481 183.584 190.481C182.696 190.481 181.958 190.722 181.368 191.205C180.786 191.688 180.349 192.338 180.058 193.155C179.774 193.964 179.632 194.87 179.632 195.871C179.632 196.866 179.774 197.768 180.058 198.577C180.349 199.387 180.786 200.033 181.368 200.516C181.958 200.992 182.696 201.23 183.584 201.23ZM201.793 210.477C200.408 210.477 199.219 210.289 198.224 209.913C197.23 209.543 196.431 209.046 195.827 208.421C195.224 207.796 194.805 207.104 194.57 206.344L198.043 205.502C198.2 205.822 198.427 206.138 198.725 206.45C199.023 206.77 199.425 207.033 199.929 207.239C200.44 207.452 201.083 207.558 201.857 207.558C202.951 207.558 203.857 207.292 204.574 206.759C205.291 206.234 205.65 205.367 205.65 204.16V201.06H205.458C205.259 201.457 204.968 201.866 204.585 202.285C204.208 202.704 203.707 203.055 203.082 203.339C202.464 203.624 201.687 203.766 200.749 203.766C199.492 203.766 198.352 203.471 197.33 202.881C196.314 202.285 195.504 201.397 194.901 200.218C194.304 199.032 194.006 197.548 194.006 195.765C194.006 193.968 194.304 192.452 194.901 191.216C195.504 189.973 196.317 189.032 197.34 188.393C198.363 187.746 199.503 187.423 200.76 187.423C201.719 187.423 202.507 187.587 203.125 187.913C203.75 188.233 204.247 188.62 204.616 189.075C204.986 189.522 205.266 189.945 205.458 190.342H205.671V187.636H209.474V204.266C209.474 205.665 209.141 206.823 208.473 207.739C207.805 208.656 206.893 209.341 205.735 209.795C204.577 210.25 203.263 210.477 201.793 210.477ZM201.825 200.74C202.642 200.74 203.338 200.541 203.913 200.143C204.489 199.746 204.925 199.174 205.224 198.428C205.522 197.683 205.671 196.788 205.671 195.744C205.671 194.714 205.522 193.812 205.224 193.038C204.933 192.263 204.499 191.663 203.924 191.237C203.356 190.804 202.656 190.587 201.825 190.587C200.966 190.587 200.249 190.811 199.673 191.259C199.098 191.706 198.665 192.32 198.374 193.102C198.082 193.876 197.937 194.756 197.937 195.744C197.937 196.745 198.082 197.622 198.374 198.375C198.672 199.121 199.109 199.703 199.684 200.122C200.266 200.534 200.98 200.74 201.825 200.74ZM213.427 204V187.636H217.283V204H213.427ZM215.366 185.314C214.755 185.314 214.229 185.112 213.789 184.707C213.349 184.295 213.129 183.801 213.129 183.226C213.129 182.643 213.349 182.15 213.789 181.745C214.229 181.333 214.755 181.127 215.366 181.127C215.984 181.127 216.509 181.333 216.942 181.745C217.383 182.15 217.603 182.643 217.603 183.226C217.603 183.801 217.383 184.295 216.942 184.707C216.509 185.112 215.984 185.314 215.366 185.314ZM225.106 194.412V204H221.249V187.636H224.935V190.417H225.127C225.503 189.501 226.104 188.773 226.927 188.233C227.758 187.693 228.785 187.423 230.006 187.423C231.135 187.423 232.119 187.665 232.957 188.148C233.802 188.631 234.456 189.33 234.917 190.246C235.386 191.163 235.617 192.274 235.61 193.581V204H231.753V194.178C231.753 193.084 231.469 192.228 230.901 191.61C230.34 190.992 229.562 190.683 228.568 190.683C227.893 190.683 227.293 190.832 226.768 191.131C226.249 191.422 225.841 191.844 225.542 192.398C225.251 192.952 225.106 193.624 225.106 194.412Z" fill="#67DC41"/>
<path d="M150.53 739.783C150.53 746.692 145.798 751.609 138.811 751.609C132.112 751.609 126.702 746.199 126.702 739.5C126.702 732.801 132.112 727.391 138.811 727.391C142.073 727.391 144.817 728.587 146.931 730.56L143.635 733.729C139.324 729.568 131.306 732.693 131.306 739.5C131.306 743.724 134.68 747.146 138.811 747.146C143.606 747.146 145.403 743.709 145.686 741.927H138.811V737.762H150.339C150.452 738.382 150.53 738.978 150.53 739.783Z" fill="black"/>
<path d="M204.042 741.062L204.736 736.538H200.395V733.602C200.395 732.364 201.001 731.158 202.946 731.158H204.919V727.306C204.919 727.306 203.128 727 201.416 727C197.841 727 195.504 729.167 195.504 733.09V736.538H191.53V741.062H195.504V752H200.395V741.062H204.042Z" fill="black"/>
<path d="M261.286 740.122C261.276 738.33 262.086 736.978 263.727 735.981C262.809 734.668 261.422 733.945 259.591 733.804C257.858 733.667 255.963 734.814 255.27 734.814C254.538 734.814 252.858 733.853 251.54 733.853C248.815 733.896 245.919 736.025 245.919 740.356C245.919 741.636 246.154 742.957 246.623 744.321C247.248 746.113 249.503 750.508 251.857 750.435C253.087 750.405 253.957 749.561 255.558 749.561C257.111 749.561 257.917 750.435 259.289 750.435C261.662 750.4 263.703 746.406 264.298 744.609C261.115 743.11 261.286 740.215 261.286 740.122ZM258.522 732.104C259.855 730.522 259.733 729.082 259.694 728.564C258.517 728.633 257.155 729.365 256.378 730.269C255.524 731.235 255.021 732.432 255.128 733.779C256.403 733.877 257.565 733.223 258.522 732.104Z" fill="black"/>
<path d="M157.143 693.562C157.09 693.066 156.867 692.68 156.473 692.403C156.083 692.127 155.575 691.989 154.95 691.989C154.511 691.989 154.134 692.055 153.82 692.188C153.505 692.32 153.265 692.5 153.098 692.727C152.931 692.955 152.846 693.214 152.842 693.506C152.842 693.748 152.897 693.958 153.007 694.136C153.121 694.314 153.274 694.466 153.467 694.591C153.661 694.712 153.875 694.814 154.109 694.898C154.344 694.981 154.581 695.051 154.82 695.108L155.911 695.381C156.35 695.483 156.772 695.621 157.178 695.795C157.587 695.97 157.952 696.189 158.274 696.455C158.6 696.72 158.857 697.04 159.047 697.415C159.236 697.79 159.331 698.229 159.331 698.733C159.331 699.415 159.157 700.015 158.808 700.534C158.46 701.049 157.956 701.453 157.297 701.744C156.642 702.032 155.848 702.176 154.916 702.176C154.011 702.176 153.225 702.036 152.558 701.756C151.895 701.475 151.376 701.066 151.001 700.528C150.63 699.991 150.429 699.335 150.399 698.562H152.473C152.503 698.968 152.628 699.305 152.848 699.574C153.068 699.843 153.354 700.044 153.706 700.176C154.062 700.309 154.46 700.375 154.899 700.375C155.357 700.375 155.759 700.307 156.104 700.17C156.452 700.03 156.725 699.837 156.922 699.591C157.119 699.341 157.219 699.049 157.223 698.716C157.219 698.413 157.13 698.163 156.956 697.966C156.782 697.765 156.537 697.598 156.223 697.466C155.912 697.33 155.549 697.208 155.132 697.102L153.808 696.761C152.85 696.515 152.092 696.142 151.536 695.642C150.982 695.138 150.706 694.47 150.706 693.636C150.706 692.951 150.892 692.35 151.263 691.835C151.638 691.32 152.147 690.92 152.791 690.636C153.435 690.348 154.164 690.205 154.979 690.205C155.804 690.205 156.528 690.348 157.149 690.636C157.774 690.92 158.265 691.316 158.621 691.824C158.977 692.328 159.161 692.907 159.172 693.562H157.143ZM161.119 702V693.273H163.176V702H161.119ZM162.153 692.034C161.828 692.034 161.547 691.926 161.312 691.71C161.078 691.491 160.96 691.227 160.96 690.92C160.96 690.61 161.078 690.347 161.312 690.131C161.547 689.911 161.828 689.801 162.153 689.801C162.483 689.801 162.763 689.911 162.994 690.131C163.229 690.347 163.347 690.61 163.347 690.92C163.347 691.227 163.229 691.491 162.994 691.71C162.763 691.926 162.483 692.034 162.153 692.034ZM169.087 705.455C168.348 705.455 167.714 705.354 167.183 705.153C166.653 704.956 166.227 704.691 165.905 704.358C165.583 704.025 165.359 703.655 165.234 703.25L167.087 702.801C167.17 702.972 167.291 703.14 167.45 703.307C167.609 703.477 167.823 703.617 168.092 703.727C168.365 703.841 168.708 703.898 169.121 703.898C169.704 703.898 170.187 703.756 170.57 703.472C170.952 703.191 171.143 702.729 171.143 702.085V700.432H171.041C170.935 700.644 170.78 700.862 170.575 701.085C170.375 701.309 170.107 701.496 169.774 701.648C169.445 701.799 169.03 701.875 168.53 701.875C167.859 701.875 167.251 701.718 166.706 701.403C166.164 701.085 165.732 700.612 165.411 699.983C165.092 699.35 164.933 698.559 164.933 697.608C164.933 696.65 165.092 695.841 165.411 695.182C165.732 694.519 166.166 694.017 166.712 693.676C167.257 693.331 167.865 693.159 168.536 693.159C169.047 693.159 169.467 693.246 169.797 693.42C170.13 693.591 170.395 693.797 170.592 694.04C170.789 694.278 170.939 694.504 171.041 694.716H171.155V693.273H173.183V702.142C173.183 702.888 173.005 703.506 172.649 703.994C172.293 704.483 171.806 704.848 171.189 705.091C170.571 705.333 169.871 705.455 169.087 705.455ZM169.104 700.261C169.539 700.261 169.911 700.155 170.217 699.943C170.524 699.731 170.757 699.426 170.916 699.028C171.075 698.631 171.155 698.153 171.155 697.597C171.155 697.047 171.075 696.566 170.916 696.153C170.761 695.741 170.53 695.42 170.223 695.193C169.92 694.962 169.547 694.847 169.104 694.847C168.645 694.847 168.263 694.966 167.956 695.205C167.649 695.443 167.418 695.771 167.263 696.188C167.107 696.6 167.03 697.07 167.03 697.597C167.03 698.131 167.107 698.598 167.263 699C167.422 699.398 167.655 699.708 167.962 699.932C168.272 700.152 168.653 700.261 169.104 700.261ZM177.348 696.886V702H175.291V693.273H177.257V694.756H177.359C177.56 694.267 177.88 693.879 178.32 693.591C178.763 693.303 179.31 693.159 179.962 693.159C180.564 693.159 181.089 693.288 181.536 693.545C181.986 693.803 182.335 694.176 182.581 694.665C182.831 695.153 182.954 695.746 182.95 696.443V702H180.893V696.761C180.893 696.178 180.742 695.722 180.439 695.392C180.14 695.062 179.725 694.898 179.195 694.898C178.835 694.898 178.515 694.977 178.234 695.136C177.958 695.292 177.74 695.517 177.581 695.812C177.426 696.108 177.348 696.466 177.348 696.886ZM190.604 698.33V693.273H192.661V702H190.666V700.449H190.575C190.378 700.937 190.054 701.337 189.604 701.648C189.157 701.958 188.606 702.114 187.95 702.114C187.378 702.114 186.873 701.987 186.433 701.733C185.998 701.475 185.657 701.102 185.411 700.614C185.164 700.121 185.041 699.527 185.041 698.83V693.273H187.098V698.511C187.098 699.064 187.25 699.504 187.553 699.83C187.856 700.155 188.253 700.318 188.746 700.318C189.049 700.318 189.342 700.244 189.626 700.097C189.911 699.949 190.143 699.729 190.325 699.438C190.511 699.142 190.604 698.773 190.604 698.33ZM194.776 705.273V693.273H196.798V694.716H196.918C197.024 694.504 197.173 694.278 197.366 694.04C197.56 693.797 197.821 693.591 198.151 693.42C198.48 693.246 198.901 693.159 199.412 693.159C200.086 693.159 200.694 693.331 201.236 693.676C201.781 694.017 202.213 694.523 202.531 695.193C202.853 695.86 203.014 696.678 203.014 697.648C203.014 698.606 202.857 699.42 202.543 700.091C202.228 700.761 201.8 701.273 201.259 701.625C200.717 701.977 200.103 702.153 199.418 702.153C198.918 702.153 198.503 702.07 198.173 701.903C197.844 701.737 197.579 701.536 197.378 701.301C197.181 701.062 197.027 700.837 196.918 700.625H196.832V705.273H194.776ZM196.793 697.636C196.793 698.201 196.872 698.695 197.031 699.119C197.194 699.544 197.427 699.875 197.73 700.114C198.037 700.348 198.408 700.466 198.844 700.466C199.298 700.466 199.679 700.345 199.986 700.102C200.293 699.856 200.524 699.521 200.679 699.097C200.838 698.669 200.918 698.182 200.918 697.636C200.918 697.095 200.84 696.614 200.685 696.193C200.529 695.773 200.298 695.443 199.991 695.205C199.685 694.966 199.302 694.847 198.844 694.847C198.404 694.847 198.031 694.962 197.724 695.193C197.418 695.424 197.185 695.748 197.026 696.165C196.87 696.581 196.793 697.072 196.793 697.636ZM210.545 702L208.08 693.273H210.176L211.71 699.409H211.79L213.358 693.273H215.432L217 699.375H217.085L218.597 693.273H220.699L218.227 702H216.085L214.449 696.102H214.33L212.693 702H210.545ZM222.135 702V693.273H224.192V702H222.135ZM223.169 692.034C222.843 692.034 222.563 691.926 222.328 691.71C222.093 691.491 221.976 691.227 221.976 690.92C221.976 690.61 222.093 690.347 222.328 690.131C222.563 689.911 222.843 689.801 223.169 689.801C223.499 689.801 223.779 689.911 224.01 690.131C224.245 690.347 224.362 690.61 224.362 690.92C224.362 691.227 224.245 691.491 224.01 691.71C223.779 691.926 223.499 692.034 223.169 692.034ZM230.665 693.273V694.864H225.648V693.273H230.665ZM226.886 691.182H228.943V699.375C228.943 699.652 228.985 699.864 229.068 700.011C229.155 700.155 229.269 700.254 229.409 700.307C229.549 700.36 229.705 700.386 229.875 700.386C230.004 700.386 230.121 700.377 230.227 700.358C230.337 700.339 230.42 700.322 230.477 700.307L230.824 701.915C230.714 701.953 230.557 701.994 230.352 702.04C230.152 702.085 229.905 702.112 229.614 702.119C229.098 702.134 228.634 702.057 228.222 701.886C227.809 701.712 227.481 701.443 227.239 701.08C227 700.716 226.883 700.261 226.886 699.716V691.182ZM234.629 696.886V702H232.572V690.364H234.584V694.756H234.686C234.891 694.263 235.207 693.875 235.635 693.591C236.067 693.303 236.616 693.159 237.283 693.159C237.889 693.159 238.417 693.286 238.868 693.54C239.319 693.794 239.667 694.165 239.913 694.653C240.163 695.142 240.288 695.739 240.288 696.443V702H238.232V696.761C238.232 696.174 238.08 695.718 237.777 695.392C237.478 695.062 237.057 694.898 236.516 694.898C236.152 694.898 235.826 694.977 235.538 695.136C235.254 695.292 235.031 695.517 234.868 695.812C234.709 696.108 234.629 696.466 234.629 696.886Z" fill="#67DC41"/>
<g clip-path="url(#clip0_107_1193)">
<path d="M167.767 98.75L170.836 157.95L167.767 98.75ZM167.767 98.75H222.233L219.164 157.95L167.767 98.75ZM182.841 78.531L182.841 78.5311L182.843 78.5258C183.516 76.8876 184.831 76 186.131 76H203.869C205.169 76 206.484 76.8876 207.157 78.5258L207.159 78.531L208.22 81.0726L208.477 81.6875H209.143H223.286C225.174 81.6875 227 83.5975 227 86.375C227 89.1525 225.174 91.0625 223.286 91.0625H166.714C164.826 91.0625 163 89.1525 163 86.375C163 83.5975 164.826 81.6875 166.714 81.6875H180.857H181.523L181.78 81.0726L182.841 78.531ZM176.894 165C173.854 165 171.053 162.085 170.836 157.95H219.164C218.947 162.085 216.146 165 213.106 165H176.894Z" fill="#12DF00" stroke="white" stroke-width="2"/>
<g clip-path="url(#clip1_107_1193)">
<path d="M196.37 105.037C197.934 105.037 199.198 106.358 199.198 107.992V111.288C199.34 111.307 199.472 111.325 199.614 111.353C199.649 111.362 199.676 111.362 199.711 111.372L203.954 112.184C205.492 112.48 206.509 114.022 206.226 115.619C205.943 117.217 204.467 118.288 202.937 117.992L198.739 117.189C195.972 116.764 193.532 117.05 191.818 117.761C190.103 118.472 189.413 119.451 189.254 120.356C189.077 121.344 189.21 121.898 189.36 122.24C189.519 122.6 189.847 123.006 190.492 123.459C191.933 124.447 194.142 125.093 197.006 125.887L197.263 125.961C199.791 126.663 202.884 127.512 205.183 129.082C206.438 129.941 207.622 131.104 208.356 132.729C209.107 134.382 209.266 136.229 208.922 138.196C208.312 141.705 205.996 144.05 203.123 145.278C201.912 145.795 200.595 146.128 199.198 146.294V149.36C199.198 150.994 197.934 152.314 196.37 152.314C194.805 152.314 193.541 150.994 193.541 149.36V146.137C193.506 146.128 193.462 146.128 193.426 146.119H193.409C191.252 145.768 187.707 144.798 185.321 143.69C183.898 143.025 183.252 141.28 183.889 139.784C184.525 138.288 186.196 137.623 187.619 138.288C189.466 139.147 192.507 139.996 194.266 140.283C197.086 140.717 199.411 140.467 200.984 139.793C202.478 139.156 203.158 138.233 203.353 137.125C203.521 136.146 203.388 135.583 203.238 135.241C203.07 134.872 202.743 134.465 202.089 134.013C200.639 133.025 198.421 132.379 195.548 131.584L195.3 131.52C192.781 130.827 189.687 129.969 187.389 128.399C186.134 127.54 184.958 126.367 184.225 124.742C183.491 123.08 183.341 121.233 183.686 119.266C184.322 115.748 186.85 113.458 189.723 112.267C190.898 111.778 192.189 111.445 193.541 111.251V107.992C193.541 106.358 194.805 105.037 196.37 105.037Z" fill="white"/>
</g>
</g>
<defs>
<clipPath id="clip0_107_1193">
<rect width="66" height="91" fill="white" transform="translate(162 75)"/>
</clipPath>
<clipPath id="clip1_107_1193">
<rect width="28.2857" height="47.2773" fill="white" transform="translate(182.183 105.037)"/>
</clipPath>
</defs>
</svg>
